# xmcd
#
# Track frame offsets:
#	150
#	5996
#	25439
#	53074
#	77518
#	94975
#	111725
#	129795
#	146559
#	163789
#	178536
#	199663
#	225423
#	257434
#	269180
#	325364
#
# Disc length: 4514 seconds
#
# Revision: 1
# Processed by: cddbd v1.5.2PL0 Copyright (c) Steve Scherf et al.
# Submitted via: EZCDAudioConverter 2.1.7.1
#
DISCID=e311a010
DTITLE=King Crimson - Byte-Size THRAK
DYEAR=1900
DGENRE=
TTITLE0=Cloudscape
TTITLE1=Elephant Talk [Live]
TTITLE2=Red [Live]
TTITLE3=Walking On Air [Live]
TTITLE4=Heartbeat [Live]
TTITLE5=Dinosaur [Single Edit]
TTITLE6=One Time [Edit]
TTITLE7=Sex Sleep Eat Drink Dream [Edit]
TTITLE8=People [Edit]
TTITLE9=Walking On Air [Edit]
TTITLE10=Dinosaur [Album Edit]
TTITLE11=People [Remix]
TTITLE12=Jimmy Bond [1997 Rehearsal]
TTITLE13=Sad Woman Jam [1997 Rehearsal]
TTITLE14=Tony's Jam [1997 Rehearsal]
TTITLE15=Silent Night [Frippertronics]
EXTD=
EXTT0=
EXTT1=
EXTT2=
EXTT3=
EXTT4=
EXTT5=
EXTT6=
EXTT7=
EXTT8=
EXTT9=
EXTT10=
EXTT11=
EXTT12=
EXTT13=
EXTT14=
EXTT15=
PLAYORDER=
